<svg width="131" height="135" viewBox="0 0 131 135" fill="none" xmlns="http://www.w3.org/2000/svg">
<path d="M112.69 29.8183C110.948 31.0011 110.447 33.4046 111.362 35.5488C108.873 37.6684 105.907 39.9217 102.441 42.1032C100.51 43.3131 98.6163 44.3827 96.8019 45.3231C96.5779 44.9942 96.3469 44.6653 96.1114 44.3396C94.9656 42.7552 93.7261 41.2799 92.4155 39.9071C92.7766 38.6483 93.3222 37.2051 94.1613 35.6995C95.6068 33.0832 97.3928 31.2339 98.9001 29.9833C100.984 31.2306 103.528 30.9932 104.902 29.3014C106.453 27.3947 105.943 24.3678 103.755 22.5455C101.571 20.7195 98.5455 20.7784 96.9945 22.6852C95.5842 24.4233 95.8825 27.0909 97.6015 28.9329C96.8017 30.7413 95.3747 33.1061 92.8713 35.0145C91.6391 35.9574 90.4114 36.5816 89.3559 37.0045C87.0783 35.0492 84.6271 33.3701 82.0426 31.9842C82.4044 30.1722 82.9217 28.1546 83.6883 26.0137C84.7947 22.9093 86.1354 20.2914 87.4382 18.1656C89.7095 18.7457 91.9978 17.8299 92.8523 15.8583C93.8354 13.5963 92.5424 10.7954 89.974 9.60389C87.4059 8.41284 84.5223 9.28884 83.5412 11.5536C82.6888 13.5186 83.5492 15.8934 85.4767 17.2592C84.7974 19.693 83.8023 22.4639 82.3072 25.3747C81.2948 27.3573 80.2081 29.0938 79.1586 30.5761C76.6041 29.442 73.9545 28.5777 71.2525 27.9945C70.2781 25.4335 69.4383 22.2274 69.2786 18.5189C69.1372 15.0458 69.6221 12.0853 70.2165 9.82094C72.5754 9.68114 74.4927 8.05167 74.6706 5.86108C74.8774 3.37603 72.7844 1.11243 69.9881 0.809725C67.1982 0.496737 64.7683 2.25817 64.5663 4.7404C64.3884 6.931 65.9883 8.95222 68.2918 9.60555C68.5069 11.8999 68.5157 14.9318 67.7846 18.3544C66.9777 22.131 65.5535 25.0729 64.3147 27.1056C61.1403 26.9776 57.9585 27.2215 54.8311 27.856C54.4669 26.6358 54.2118 25.3275 54.1095 23.9342C54.0336 22.826 54.0605 21.7834 54.1533 20.8224C56.4877 20.2761 58.1077 18.2833 57.8746 16.0595C57.6224 13.5703 55.1556 11.7262 52.3692 11.9436C49.5824 12.1605 47.5318 14.351 47.7864 16.8434C48.0138 19.0308 49.9481 20.7214 52.3041 20.9503C52.5937 21.9814 52.8417 23.0889 53.029 24.2651C53.251 25.6137 53.3759 26.9139 53.4194 28.1685C53.1077 28.2439 52.8033 28.3198 52.4991 28.4055C48.9147 29.3541 45.4317 30.8347 42.1476 32.8579C40.6093 31.8104 39.028 30.5601 37.4666 29.0603C34.2842 25.9972 32.1852 22.8462 30.8152 20.3305C32.3871 18.6439 32.6878 16.1741 31.4061 14.4016C29.9291 12.3591 26.9123 12.019 24.6663 13.6431C22.4159 15.2706 21.7892 18.2454 23.2663 20.2879C24.5699 22.0907 27.0744 22.5631 29.1897 21.5323C31.2391 23.5063 33.8037 26.4889 35.8402 30.6237C36.7309 32.4479 37.3862 34.2236 37.8722 35.9085C35.0073 38.2438 32.564 40.9137 30.5417 43.8313C29.7191 43.4869 28.9105 43.0854 28.0542 42.5415C26.3615 41.462 25.0779 40.2317 24.1203 39.1273C25.1964 36.9174 24.6732 34.2923 22.7947 32.9941C20.7268 31.5679 17.8025 32.2921 16.2617 34.6142C14.7254 36.9331 15.1532 39.9709 17.226 41.3943C19.0129 42.6231 21.4314 42.2505 23.0484 40.6357C24.4006 41.378 25.8549 42.3094 27.324 43.5001C28.1083 44.1259 28.8211 44.7772 29.4854 45.4378C27.7474 48.223 26.3843 51.2017 25.3935 54.3035C23.6764 54.2797 21.8357 54.1422 19.8888 53.8292C15.4073 53.1073 11.7443 51.6921 9.05987 50.3784C9.28344 48.0311 8.01997 45.8157 5.93918 45.1647C3.55635 44.4209 1.00543 46.0055 0.240856 48.7034C-0.518853 51.3986 0.793338 54.1878 3.17129 54.9344C5.28137 55.5877 7.51114 54.4286 8.53233 52.2861C11.2703 52.6132 15.1351 53.457 19.2704 55.6974C21.1641 56.7203 22.795 57.8672 24.1971 59.0225C24.0896 59.5905 23.9849 60.1721 23.8987 60.7503C23.4784 63.6568 23.3631 66.6221 23.5735 69.5885C22.6646 69.9082 21.6947 70.201 20.6632 70.4468C17.3086 71.2448 14.3222 71.329 12.0116 71.1916C11.2933 68.8988 9.24924 67.343 7.09082 67.588C4.64287 67.8625 2.96881 70.3635 3.35487 73.1715C3.73572 75.9819 6.03496 78.0338 8.49165 77.7522C10.6448 77.5096 12.1971 75.5473 12.2801 73.1681C14.4933 72.5212 17.4157 71.9376 20.8724 71.9496C21.9047 71.9534 22.8882 72.0138 23.8328 72.1066C24.4421 76.7235 25.844 81.2994 28.0674 85.6258C26.6184 86.8804 24.996 88.1532 23.1626 89.3923C20.5452 91.1621 18.0127 92.5238 15.7035 93.5827C14.1845 91.5776 11.6261 90.83 9.68903 91.9352C7.55628 93.1521 6.98674 96.1388 8.41308 98.6081C9.84396 101.074 12.7274 102.09 14.8549 100.875C16.7527 99.7921 17.4047 97.3112 16.5255 95.0346C18.6255 93.5813 21.0862 92.0918 23.9265 90.7163C25.8964 89.7615 27.7915 88.99 29.6004 88.3477C30.1678 89.2852 30.7832 90.203 31.4377 91.1081C32.992 93.2575 34.707 95.2182 36.5618 96.9805C35.6899 99.3866 34.2866 102.415 31.9498 105.519C29.9024 108.239 27.7299 110.232 25.881 111.66C23.8901 110.34 21.3847 110.43 19.9194 112.007C18.253 113.801 18.5714 116.85 20.6389 118.811C22.7067 120.772 25.7383 120.904 27.4047 119.109C28.8503 117.553 28.8016 115.068 27.4263 113.157C28.8954 111.108 30.7425 108.847 33.0562 106.571C35.7131 103.958 38.3474 101.953 40.6798 100.42C43.6165 102.579 46.7972 104.302 50.1112 105.588C49.8065 106.725 49.4144 107.912 48.8854 109.139C47.8799 111.485 46.6565 113.377 45.4864 114.873C43.3009 113.954 40.8742 114.535 39.7441 116.374C38.4612 118.469 39.3542 121.415 41.7464 122.945C43.2489 123.905 44.9882 124.084 46.392 123.56C47.2213 123.254 47.9349 122.703 48.4139 121.922C48.5522 121.693 48.671 121.446 48.7572 121.193C49.4383 119.306 48.6375 116.995 46.761 115.595C47.6223 113.843 48.7247 111.927 50.1652 109.963C51.096 108.699 52.0433 107.582 52.9752 106.587C54.9157 107.187 56.8974 107.634 58.8873 107.93C59.0748 107.96 59.2668 107.987 59.449 108.009C59.9699 110.392 60.3735 113.454 60.1957 116.983C60.0201 120.438 59.3466 123.348 58.6212 125.584C56.2703 125.572 54.2688 127.057 53.9404 129.211C53.5626 131.67 55.5047 134.069 58.2781 134.569C61.0398 135.072 63.5949 133.484 63.9679 131.028C64.2966 128.893 62.8742 126.802 60.6798 125.965C60.716 123.474 60.9706 120.51 61.6776 117.255C62.4435 113.756 63.5405 110.782 64.6376 108.381C68.3971 108.401 72.1675 107.891 75.8202 106.836C76.5188 108.041 77.1995 109.394 77.7978 110.899C79.1038 114.177 79.6672 117.154 79.9017 119.475C77.7593 120.44 76.5504 122.647 77.1319 124.78C77.7961 127.198 80.5214 128.607 83.2212 127.926C85.9164 127.248 87.5659 124.732 86.9085 122.303C86.3327 120.198 84.2013 118.856 81.8773 118.996C80.9011 116.7 79.9275 113.854 79.242 110.536C78.9127 108.915 78.693 107.379 78.5584 105.931C81.2443 104.935 83.8469 103.632 86.3275 101.998C88.1165 103.65 89.9992 105.584 91.8637 107.838C94.6393 111.189 96.706 114.438 98.2389 117.246C96.6778 118.929 96.3815 121.395 97.6602 123.163C99.1373 125.206 102.154 125.545 104.409 123.915C106.655 122.291 107.277 119.32 105.8 117.277C104.526 115.516 102.102 115.021 100.02 115.963C97.8144 113.554 95.4037 110.564 93.066 106.968C91.4907 104.541 90.1866 102.193 89.1 100.003C91.5424 98.0865 93.6921 95.928 95.541 93.5828C95.9957 93.7911 96.456 94.0167 96.9192 94.2559C99.9833 95.8272 102.35 97.6664 104.066 99.2663C103.146 101.405 103.68 103.882 105.477 105.135C107.531 106.579 110.463 105.875 112.022 103.569C113.574 101.263 113.171 98.2214 111.113 96.7801C109.289 95.5001 106.775 95.9122 105.143 97.6303C103.17 96.7267 100.491 95.1443 98.0027 92.4386C97.6921 92.1047 97.4006 91.7684 97.127 91.4283C99.0505 88.632 100.581 85.608 101.713 82.4433C104.036 82.6078 106.606 82.9508 109.363 83.5718C113.604 84.525 117.183 85.9008 120.008 87.2268C119.8 89.5576 121.061 91.7511 123.128 92.4012C125.514 93.1404 128.06 91.5581 128.824 88.8601C129.585 86.1664 128.274 83.3786 125.894 82.6296C123.835 81.9893 121.649 83.0844 120.604 85.1372C117.469 84.567 113.782 83.6429 109.776 82.1265C107.187 81.1457 104.852 80.0658 102.778 78.9658C103.138 77.5631 103.424 76.1424 103.639 74.7003C103.981 72.3448 104.123 69.9524 104.049 67.5568C106.477 66.6804 109.406 65.8487 112.783 65.3389C116.037 64.8415 118.984 64.7509 121.479 64.8477C122.186 67.0962 124.176 68.6436 126.306 68.4361C128.764 68.204 130.481 65.7329 130.147 62.9206C129.81 60.1049 127.542 58.0193 125.084 58.2513C122.938 58.4556 121.348 60.3755 121.216 62.7342C118.934 63.3243 116.011 63.8313 112.604 63.8304C109.066 63.8307 106.007 63.2987 103.613 62.6633C103.274 60.3879 102.741 58.1223 102.011 55.8902C102.998 55.2287 104.082 54.5786 105.253 53.9802C108.275 52.4357 111.11 51.5887 113.422 51.1159C114.671 53.1585 117.013 54.1617 119.018 53.389C121.31 52.5068 122.311 49.6485 121.255 47.0027C120.193 44.3597 117.481 42.9312 115.185 43.8166C113.173 44.5888 112.154 46.8971 112.657 49.2456C110.697 50.4251 108.022 51.7236 104.686 52.5661C103.421 52.881 102.197 53.0996 101.04 53.2386C100.239 51.2609 99.28 49.3233 98.149 47.444C99.7227 46.0943 101.438 44.7199 103.309 43.3611C106.605 40.9627 109.785 39.0346 112.681 37.488C114.346 39.1212 116.764 39.5322 118.505 38.3564C120.534 36.9767 120.879 33.9469 119.267 31.5939C117.66 29.2377 114.715 28.4423 112.69 29.8183Z" fill="#FFE1E1"/>
</svg>
